<svg width="44" height="44" viewBox="0 0 44 44" fill="none" xmlns="http://www.w3.org/2000/svg">
<g id="Group">
<path id="Vector" d="M21.7062 43.3299H21.6109C9.69478 43.3299 0 33.6323 0 21.7126V21.6173C0 9.69766 9.69478 0 21.6109 0H21.7062C33.6224 0 43.3171 9.69766 43.3171 21.6173V21.7126C43.3171 33.6323 33.6224 43.3299 21.7062 43.3299ZM21.6109 1.46667C10.5027 1.46667 1.46624 10.5058 1.46624 21.6173V21.7126C1.46624 32.8241 10.5027 41.8632 21.6109 41.8632H21.7062C32.8145 41.8632 41.8509 32.8241 41.8509 21.7126V21.6173C41.8509 10.5058 32.8145 1.46667 21.7062 1.46667H21.6109Z" fill="#E1E1E1"/>
<path id="Vector_2" d="M24.5726 16.8069V21.3668H30.2117L29.3188 27.5092H24.5726V41.6612C23.621 41.7932 22.6474 41.8621 21.6591 41.8621C20.5184 41.8621 19.3982 41.7712 18.3073 41.5952V27.5092H13.1066V21.3668H18.3073V15.7876C18.3073 12.3263 21.1122 9.51904 24.574 9.51904V9.52198C24.5843 9.52198 24.5931 9.51904 24.6034 9.51904H30.2132V14.8313H26.5476C25.4582 14.8313 24.574 15.7157 24.574 16.8055L24.5726 16.8069Z" fill="#E1E1E1"/>
</g>
</svg>
