<svg width="99" height="40" viewBox="0 0 99 40" fill="none" xmlns="http://www.w3.org/2000/svg">
<g id="Frame 3">
<g id="Group">
<g id="Group_2">
<path id="Vector" d="M18.5898 5.15699C17.4488 6.50809 15.6231 7.57374 13.7974 7.4215C13.5692 5.59467 14.463 3.65366 15.509 2.4548C16.65 1.06565 18.6469 0.076118 20.2633 0C20.4535 1.90295 19.7118 3.76784 18.5898 5.15699ZM20.2443 7.78306C17.6009 7.63083 15.3378 9.28639 14.0827 9.28639C12.8085 9.28639 10.8878 7.85918 8.79584 7.89724C6.07635 7.9353 3.54703 9.47669 2.15876 11.9315C-0.693854 16.8411 1.41708 24.1104 4.1746 28.1066C5.52484 30.0856 7.14132 32.255 9.27127 32.1789C11.2871 32.1028 12.0859 30.8658 14.5201 30.8658C16.9733 30.8658 17.677 32.1789 19.8069 32.1408C22.0129 32.1028 23.4012 30.1617 24.7514 28.1827C26.2919 25.9372 26.9194 23.7488 26.9575 23.6346C26.9194 23.5966 22.6976 21.9791 22.6595 17.1075C22.6215 13.0352 25.9876 11.0942 26.1397 10.98C24.238 8.16365 21.2713 7.85918 20.2443 7.78306ZM35.5153 2.26451V31.9315H40.1175V21.7888H46.4884C52.3077 21.7888 56.3964 17.7926 56.3964 12.0076C56.3964 6.22264 52.3838 2.26451 46.6405 2.26451H35.5153ZM40.1175 6.14653H45.4234C49.417 6.14653 51.6991 8.27783 51.6991 12.0266C51.6991 15.7755 49.417 17.9258 45.4044 17.9258H40.1175V6.14653ZM64.8021 32.1598C67.6928 32.1598 70.3742 30.6946 71.5913 28.373H71.6864V31.9315H75.9463V17.1646C75.9463 12.883 72.5232 10.1237 67.2554 10.1237C62.3679 10.1237 58.7546 12.921 58.6215 16.765H62.7673C63.1096 14.9382 64.8021 13.7393 67.1223 13.7393C69.9368 13.7393 71.5153 15.0523 71.5153 17.4691V19.1056L65.772 19.4481C60.4281 19.7716 57.5375 21.96 57.5375 25.7659C57.5375 29.6099 60.5232 32.1598 64.8021 32.1598ZM66.0383 28.6394C63.585 28.6394 62.0256 27.4596 62.0256 25.6518C62.0256 23.7869 63.528 22.7022 66.3996 22.5309L71.5153 22.2074V23.882C71.5153 26.6603 69.1571 28.6394 66.0383 28.6394ZM81.6325 40C86.1207 40 88.2316 38.2873 90.0763 33.0923L98.1587 10.4091H93.4804L88.0604 27.9353H87.9653L82.5454 10.4091H77.734L85.5311 32.0076L85.1127 33.3206C84.4091 35.5471 83.268 36.4034 81.2332 36.4034C80.8718 36.4034 80.1682 36.3654 79.8829 36.3273V39.8858C80.1492 39.9619 81.2902 40 81.6325 40Z" fill="#83858D"/>
</g>
</g>
</g>
</svg>
