<svg width="142" height="40" viewBox="0 0 142 40" fill="none" xmlns="http://www.w3.org/2000/svg">
<g id="Frame 2">
<path id="Vector" d="M7.84422 0.138088C4.94216 1.33808 1.76976 4.78083 0.762868 9.07598C-0.514369 14.5325 4.78768 16.8139 5.21251 16.0415C5.71457 15.1504 4.28286 14.8415 3.97389 12.0167C3.58769 8.38082 5.28975 4.31738 7.41664 2.49946C7.80284 2.15187 7.80284 2.61532 7.80284 3.46773C7.80284 4.97669 7.7256 18.7118 7.7256 21.5753C7.7256 25.4456 7.57112 26.6814 7.26216 27.8814C6.95319 29.1201 6.48699 29.9311 6.87595 30.2428C7.26216 30.5904 8.96422 29.7407 9.93249 28.3863C11.0939 26.7614 11.5187 24.789 11.5959 22.6208C11.6732 20.0277 11.6732 15.967 11.6732 13.6056C11.6732 11.4787 11.7118 5.21117 11.6346 1.41808C11.5987 0.604293 9.04422 -0.363979 7.84422 0.138088ZM110.489 18.2456C110.412 20.2566 109.949 21.8428 109.405 22.927C108.321 25.0925 106.117 25.7518 105.187 22.6566C104.685 20.9546 104.647 18.1684 105.033 15.8098C105.419 13.4098 106.465 11.5918 108.205 11.7849C109.871 11.978 110.682 14.1849 110.489 18.2456ZM81.5488 30.7421C81.5102 34.069 81.0081 37.0097 79.8853 37.8621C78.2991 39.0621 76.1336 38.1711 76.5585 35.7352C76.9447 33.5697 78.8012 31.3628 81.5488 28.6538C81.5488 28.6925 81.5488 29.3104 81.5488 30.7421ZM81.124 18.2456C81.0081 20.0635 80.5447 21.9201 80.0398 22.9656C78.9557 25.1311 76.7129 25.7904 75.8219 22.6952C75.204 20.5684 75.3585 17.8594 75.6674 16.1187C76.0923 13.876 77.0605 11.8236 78.8398 11.8236C80.5033 11.7849 81.3557 13.6801 81.124 18.2456ZM64.3709 18.207C64.2551 20.1408 63.8688 21.7656 63.2868 22.9656C62.2026 25.0925 59.9985 25.7904 59.0689 22.6952C58.3737 20.4911 58.6054 17.4346 58.9144 15.8098C59.3392 13.3711 60.4233 11.6691 62.0868 11.8236C63.753 11.978 64.564 14.1849 64.3709 18.207ZM141.132 20.4911C140.707 20.4911 140.514 20.9159 140.357 21.6525C139.816 24.1683 139.234 24.7477 138.5 24.7477C137.687 24.7477 136.914 23.509 136.721 20.9959C136.567 19.0235 136.605 15.3849 136.798 11.7877C136.837 11.0539 136.644 10.3174 134.633 9.58357C133.78 9.2746 132.544 8.8084 131.924 10.3174C130.183 14.5353 129.485 17.9008 129.331 19.2553C129.331 19.3325 129.253 19.3325 129.215 19.178C129.099 18.0939 128.867 16.1215 128.867 11.9422C128.867 11.1284 128.674 10.4332 127.783 9.85391C127.204 9.4677 125.422 8.84702 124.804 9.62219C124.263 10.2401 123.604 11.9449 122.947 13.9946C122.407 15.6194 122.018 16.7422 122.018 16.7422C122.018 16.7422 122.018 12.3311 122.018 10.6291C122.018 10.0112 121.593 9.77667 121.438 9.73805C120.859 9.58357 119.698 9.2746 119.196 9.2746C118.578 9.2746 118.42 9.62219 118.42 10.127C118.42 10.2043 118.343 15.9698 118.343 19.9918C118.343 20.1849 118.343 20.3394 118.343 20.5711C117.996 22.4277 116.911 24.9435 115.711 24.9435C114.511 24.9435 113.971 23.898 113.971 19.1008C113.971 16.3146 114.048 15.076 114.087 13.0649C114.125 11.9036 114.164 11.0153 114.164 10.7836C114.164 10.1656 113.08 9.85391 112.578 9.73805C112.076 9.62219 111.648 9.58357 111.3 9.58357C110.798 9.62219 110.487 9.93115 110.487 10.3587C110.487 10.5905 110.487 11.0539 110.487 11.0539C109.869 10.0856 108.862 9.39047 108.205 9.19736C106.426 8.65668 104.531 9.12012 103.099 11.1311C101.976 12.7174 101.281 14.4967 101.011 17.0511C100.818 18.9077 100.895 20.8028 101.243 22.4277C100.818 24.2456 100.043 24.9821 99.1929 24.9821C97.9542 24.9821 97.066 22.9711 97.1818 19.487C97.2591 17.2056 97.7225 15.578 98.2273 13.258C98.4591 12.2511 98.266 11.7491 97.8411 11.247C97.4549 10.7836 96.6025 10.5518 95.3639 10.8608C94.4729 11.0539 93.237 11.2856 92.1143 11.4401C92.1143 11.4401 92.1915 11.1698 92.2301 10.6649C92.5391 8.11047 89.7529 8.34219 88.8646 9.15598C88.3239 9.65805 87.9736 10.2015 87.8577 11.2443C87.626 12.8691 88.9805 13.6442 88.9805 13.6442C88.5557 15.6553 87.4715 18.2484 86.3488 20.1435C85.7695 21.1504 85.3032 21.9228 84.7239 22.698C84.7239 22.389 84.7239 22.1187 84.7239 21.807C84.7239 17.5891 84.7626 14.3008 84.8012 13.1008C84.8398 11.9394 84.8784 11.0512 84.8784 10.858C84.8784 10.3946 84.6081 10.2401 84.0646 10.0056C83.5626 9.81253 82.9805 9.69667 82.4012 9.61943C81.626 9.54219 81.2012 9.96702 81.2012 10.4332C81.2012 10.5105 81.2012 11.0898 81.2012 11.0898C80.5833 10.1215 79.5764 9.42633 78.9198 9.23322C77.1405 8.69254 75.2454 9.15598 73.8136 11.167C72.6909 12.7532 71.9571 14.9573 71.7254 17.0484C71.5323 19.0208 71.5709 20.6842 71.8412 22.1159C71.5709 23.5477 70.7185 25.018 69.7916 25.018C68.5916 25.018 67.935 23.9725 67.935 19.1753C67.935 16.3891 68.0123 15.1504 68.0509 13.1394C68.0895 11.978 68.1281 11.0898 68.1281 10.858C68.1281 10.2401 67.044 9.92839 66.5419 9.81253C66.0013 9.69667 65.5737 9.65805 65.2261 9.65805C64.7626 9.69667 64.4509 10.1215 64.4509 10.3918V11.087C63.833 10.1187 62.8261 9.42357 62.1695 9.23047C60.3902 8.68978 58.4951 9.19184 57.0634 11.1643C56.1337 12.4415 55.3999 13.8732 54.9751 17.0456C54.8592 17.9753 54.8206 18.8249 54.8206 19.6001C54.4344 21.8815 52.8096 24.4745 51.4551 24.4745C50.6799 24.4745 49.9075 22.9656 49.9075 19.7159C49.9075 15.3822 50.1779 9.26909 50.2165 8.65116C50.2165 8.65116 51.9185 8.61254 52.2275 8.61254C53.0799 8.61254 53.8523 8.61254 54.9751 8.57392C55.5544 8.5353 56.0978 6.52427 55.5158 6.25117C55.2454 6.1353 53.3889 6.05806 52.6523 6.01944C52.0344 6.01944 50.291 5.86496 50.291 5.86496C50.291 5.86496 50.4454 1.80153 50.4841 1.33808C50.5227 0.990496 50.0592 0.797392 49.7889 0.68153C49.1324 0.411186 48.5503 0.295327 47.8937 0.140845C46.9255 -0.0522579 46.5006 0.140844 46.4234 0.954634C46.3075 2.15463 46.2303 5.71324 46.2303 5.71324C45.5351 5.71324 43.1351 5.55876 42.44 5.55876C41.7834 5.55876 41.0855 8.34496 41.9765 8.38358C43.022 8.4222 44.8013 8.46082 46.0013 8.49944C46.0013 8.49944 45.9627 14.7284 45.9627 16.6622C45.9627 16.8553 45.9627 17.0484 45.9627 17.2415C45.3062 20.6456 42.9834 22.5021 42.9834 22.5021C43.4855 20.2594 42.4813 18.5546 40.6607 17.1256C40.0041 16.5849 38.6496 15.578 37.1793 14.4939C37.1793 14.4939 38.0317 13.6415 38.8041 11.9394C39.3448 10.7394 39.3834 9.34633 38.0289 9.03736C35.8248 8.5353 34.0427 10.1601 33.5021 11.8622C33.0772 13.178 33.309 14.1849 34.12 15.1891C34.1972 15.2663 34.2359 15.3435 34.3131 15.4208C33.811 16.3891 33.1517 17.6635 32.5724 18.6318C30.9862 21.3794 29.7862 23.5835 28.8593 23.5835C28.1255 23.5835 28.1255 21.3794 28.1255 19.2884C28.1255 17.5091 28.2414 14.8001 28.3573 12.0139C28.3959 11.0843 27.9324 10.5822 27.1573 10.0801C26.6938 9.80977 25.6869 9.22771 25.1076 9.22771C24.2552 9.22771 21.7421 9.34357 19.3807 16.1932C19.0718 17.0456 18.4897 18.6318 18.4897 18.6318L18.5283 10.3918C18.5283 10.1987 18.4125 10.0056 18.1807 9.88977C17.7945 9.65805 16.7104 9.23322 15.7807 9.23322C15.3173 9.23322 15.1242 9.42633 15.1242 9.85115L15.047 22.7339C15.047 23.7021 15.0856 24.8608 15.1628 25.3656C15.2401 25.8676 15.4332 26.2566 15.6263 26.527C15.8194 26.7587 16.0511 26.9518 16.4014 27.029C16.749 27.1063 18.6056 27.338 18.7242 26.6428C18.84 25.7904 18.84 24.8635 19.8469 21.3821C21.3945 15.9642 23.3669 13.3353 24.3352 12.4056C24.4897 12.2511 24.6828 12.2511 24.6828 12.4829C24.6442 13.6829 24.4897 16.6235 24.4124 19.1366C24.1421 25.8677 25.3807 27.1063 27.1214 27.1063C28.4759 27.1063 30.3324 25.7904 32.3821 22.4249C33.6593 20.3366 34.8593 18.2842 35.7476 16.7753C36.3655 17.3546 37.0634 17.9366 37.72 18.5932C39.3062 20.1022 39.8469 21.5339 39.4993 22.927C39.2289 23.9725 38.222 25.0539 36.4427 24.0111C35.9407 23.7021 35.709 23.4704 35.1655 23.1201C34.8952 22.927 34.4703 22.8884 34.1972 23.0815C33.5407 23.5835 33.1517 24.2428 32.92 25.0152C32.7269 25.7904 33.4607 26.1766 34.2745 26.5628C34.9696 26.8718 36.44 27.1421 37.4083 27.1807C41.0827 27.2966 44.0234 25.4014 46.0758 20.4884C46.4234 24.7063 48.0096 27.1035 50.7185 27.1035C52.5365 27.1035 54.3544 24.7421 55.1682 22.4608C55.3999 23.3904 55.7475 24.2401 56.1751 24.8994C58.2633 28.2263 62.3268 27.4925 64.3764 24.6677C64.9944 23.8152 65.1102 23.4677 65.1102 23.4677C65.4192 26.138 67.5488 27.0649 68.7847 27.0649C70.1778 27.0649 71.5709 26.4083 72.575 24.1628C72.6909 24.3945 72.8067 24.6263 72.9612 24.858C75.0495 28.1849 79.1129 27.4511 81.1626 24.6263C81.2398 24.5104 81.3557 24.3559 81.4329 24.2787L81.5102 26.0194C81.5102 26.0194 80.3488 27.1035 79.615 27.7601C76.4812 30.6621 74.0812 32.8276 73.8881 35.3821C73.6564 38.6317 76.2881 39.8317 78.2991 39.9862C80.426 40.1407 82.2467 38.9793 83.3281 37.3545C84.2964 35.9228 84.9529 32.8276 84.9143 29.7325C84.9143 28.4938 84.8757 26.9463 84.837 25.2828C85.9598 24.0056 87.1984 22.3808 88.3184 20.4856C89.557 18.436 90.9115 15.6498 91.6067 13.4815C91.6067 13.4815 92.7681 13.4815 94.0067 13.4042C94.3929 13.3656 94.5087 13.4429 94.4315 13.7518C94.3542 14.0994 92.8453 19.8263 94.1998 23.6166C95.1294 26.2097 97.2177 27.0594 98.4563 27.0594C99.888 27.0594 101.281 25.9752 102.015 24.3504C102.092 24.5435 102.208 24.698 102.285 24.8525C104.374 28.1794 108.437 27.4456 110.487 24.6208C110.95 24.0028 111.22 23.4208 111.22 23.4208C111.645 26.1683 113.813 27.018 115.011 27.018C116.288 27.018 117.488 26.4773 118.492 24.1545C118.531 25.1614 118.608 26.0111 118.685 26.2814C118.762 26.4359 119.11 26.629 119.38 26.7449C120.542 27.1697 121.742 26.9766 122.167 26.8994C122.476 26.8221 122.707 26.5904 122.746 25.9697C122.823 24.3063 122.784 21.5201 123.287 19.4318C124.139 15.9504 124.911 14.596 125.298 13.9367C125.491 13.5504 125.761 13.5118 125.761 13.898C125.761 14.7118 125.8 17.0704 126.147 20.2042C126.379 22.527 126.727 23.9173 126.961 24.3449C127.656 25.5835 128.547 25.6608 129.242 25.6608C129.706 25.6608 130.636 25.5449 130.558 24.7311C130.52 24.3449 130.597 21.9449 131.411 18.5408C131.951 16.298 132.881 14.2842 133.19 13.5505C133.306 13.2801 133.383 13.5118 133.383 13.5505C133.306 15.098 133.151 20.127 133.769 22.9132C134.622 26.6649 137.096 27.0539 137.949 27.0539C139.766 27.0539 141.275 25.6608 141.778 21.9863C141.866 21.1477 141.711 20.4911 141.132 20.4911Z" fill="#83858D"/>
</g>
</svg>
