<svg width="44" height="44" viewBox="0 0 44 44" fill="none" xmlns="http://www.w3.org/2000/svg">
<g id="Group">
<path id="Vector" d="M21.9014 43.3299H21.8061C9.88998 43.3299 0.19519 33.6323 0.19519 21.7126V21.6173C0.19519 9.69762 9.88998 0 21.8061 0H21.9014C33.8176 0 43.5123 9.69762 43.5123 21.6173V21.7126C43.5123 33.6323 33.8176 43.3299 21.9014 43.3299ZM21.8061 1.46667C10.6979 1.46667 1.66143 10.5058 1.66143 21.6173V21.7126C1.66143 32.8241 10.6979 41.8632 21.8061 41.8632H21.9014C33.0097 41.8632 42.0461 32.8241 42.0461 21.7126V21.6173C42.0461 10.5058 33.0097 1.46667 21.9014 1.46667H21.8061Z" fill="#E1E1E1"/>
<g id="Group_2">
<path id="Vector_2" d="M28.3303 9.24951H15.3804C11.8028 9.24951 8.89233 12.1609 8.89233 15.7395V27.5902C8.89233 31.1689 11.8028 34.0802 15.3804 34.0802H28.3303C31.9079 34.0802 34.8184 31.1689 34.8184 27.5902V15.7395C34.8184 12.1609 31.9079 9.24951 28.3303 9.24951ZM11.1811 15.7395C11.1811 13.4237 13.0653 11.539 15.3804 11.539H28.3303C30.6455 11.539 32.5296 13.4237 32.5296 15.7395V27.5902C32.5296 29.9061 30.6455 31.7908 28.3303 31.7908H15.3804C13.0653 31.7908 11.1811 29.9061 11.1811 27.5902V15.7395Z" fill="#E1E1E1"/>
<path id="Vector_3" d="M21.855 27.7001C25.1819 27.7001 27.89 24.9926 27.89 21.6633C27.89 18.3339 25.1834 15.6265 21.855 15.6265C18.5266 15.6265 15.8199 18.3339 15.8199 21.6633C15.8199 24.9926 18.5266 27.7001 21.855 27.7001ZM21.855 17.9174C23.9209 17.9174 25.6012 19.5982 25.6012 21.6647C25.6012 23.7313 23.9209 25.4121 21.855 25.4121C19.7891 25.4121 18.1088 23.7313 18.1088 21.6647C18.1088 19.5982 19.7891 17.9174 21.855 17.9174Z" fill="#E1E1E1"/>
<path id="Vector_4" d="M28.4499 16.6007C29.3458 16.6007 30.076 15.8718 30.076 14.9742C30.076 14.0766 29.3472 13.3477 28.4499 13.3477C27.5526 13.3477 26.8239 14.0766 26.8239 14.9742C26.8239 15.8718 27.5526 16.6007 28.4499 16.6007Z" fill="#E1E1E1"/>
</g>
</g>
</svg>
