<svg width="44" height="44" viewBox="0 0 44 44" fill="none" xmlns="http://www.w3.org/2000/svg">
<g id="Group">
<path id="Vector" d="M22.2919 43.3299H22.1966C10.2805 43.3299 0.585693 33.6322 0.585693 21.7126V21.6173C0.585693 9.69765 10.2805 0 22.1966 0H22.2919C34.208 0 43.9028 9.69765 43.9028 21.6173V21.7126C43.9028 33.6322 34.208 43.3299 22.2919 43.3299ZM22.1966 1.46667C11.0884 1.46667 2.05193 10.5058 2.05193 21.6173V21.7126C2.05193 32.8241 11.0884 41.8632 22.1966 41.8632H22.2919C33.4001 41.8632 42.4366 32.8241 42.4366 21.7126V21.6173C42.4366 10.5058 33.4001 1.46667 22.2919 1.46667H22.1966Z" fill="#E1E1E1"/>
<g id="Group_2">
<path id="Vector_2" d="M11.2984 14.6488C10.7471 14.1369 10.4729 13.5033 10.4729 12.7495C10.4729 11.9956 10.7485 11.3341 11.2984 10.8208C11.8497 10.3089 12.5593 10.0522 13.4288 10.0522C14.2983 10.0522 14.9801 10.3089 15.53 10.8208C16.0813 11.3326 16.3554 11.9765 16.3554 12.7495C16.3554 13.5224 16.0798 14.1369 15.53 14.6488C14.9787 15.1607 14.2792 15.4173 13.4288 15.4173C12.5784 15.4173 11.8497 15.1607 11.2984 14.6488ZM15.8921 17.5851V33.2785H10.9348V17.5851H15.8921Z" fill="#E1E1E1"/>
<path id="Vector_3" d="M32.3942 19.135C33.4748 20.3083 34.0144 21.9188 34.0144 23.9692V33.0009H29.3063V24.6057C29.3063 23.5717 29.038 22.768 28.5028 22.196C27.9676 21.624 27.2462 21.3365 26.343 21.3365C25.4398 21.3365 24.7184 21.6225 24.1832 22.196C23.648 22.768 23.3797 23.5717 23.3797 24.6057V33.0009H18.6438V17.5408H23.3797V19.5912C23.8592 18.9077 24.5058 18.3679 25.3181 17.9705C26.1304 17.573 27.0439 17.375 28.06 17.375C29.8693 17.375 31.315 17.9617 32.3942 19.135Z" fill="#E1E1E1"/>
</g>
</g>
</svg>
