<svg width="161" height="40" viewBox="0 0 161 40" fill="none" xmlns="http://www.w3.org/2000/svg">
<g id="linkedin-plain-wordmark logo" clip-path="url(#clip0_2001_19)">
<path id="Vector" d="M1.62732 5.91245H7.80232V28.3875H19.2273V34.0874H1.62732V5.91245ZM21.9523 15H27.8773V34.075H21.9523V15ZM24.9148 5.51245C25.5947 5.51245 26.2593 5.71406 26.8246 6.09177C27.3899 6.46949 27.8305 7.00636 28.0907 7.63448C28.3508 8.2626 28.4189 8.95377 28.2863 9.62057C28.1536 10.2874 27.8262 10.8999 27.3455 11.3806C26.8648 11.8614 26.2523 12.1888 25.5854 12.3214C24.9186 12.454 24.2275 12.386 23.5993 12.1258C22.9712 11.8656 22.4344 11.425 22.0566 10.8597C21.6789 10.2944 21.4773 9.62982 21.4773 8.94995C21.4773 8.03827 21.8395 7.16393 22.4841 6.51927C23.1288 5.87462 24.0031 5.51245 24.9148 5.51245ZM52.6773 5.91245H58.6023V22.7499L65.3273 14.975H72.5898L64.8148 23.8125L72.4273 34.0874H64.9773L58.6773 24.65H58.6023V34.0874H52.6773V5.91245ZM31.1648 15H36.8148V17.6125H36.8898C37.4598 16.6393 38.2824 15.8386 39.2705 15.295C40.2585 14.7515 41.3753 14.4854 42.5023 14.525C48.5148 14.525 49.6148 18.475 49.6148 23.6124V34.0874H43.7398V24.7999C43.7398 22.5874 43.7398 19.8 40.6523 19.8C37.5648 19.8 37.0898 22.2125 37.0898 24.7V34.1374H31.1648V15Z" fill="#83858D"/>
<path id="Vector_2" d="M85.0781 22.3121C85.0901 21.8311 85.0042 21.3528 84.8257 20.906C84.6471 20.4593 84.3796 20.0535 84.0394 19.7133C83.6992 19.3731 83.2934 19.1056 82.8467 18.927C82.3999 18.7485 81.9216 18.6626 81.4406 18.6746C80.4047 18.6091 79.3846 18.954 78.601 19.6347C77.8173 20.3154 77.3331 21.2772 77.2531 22.3121H85.0781ZM90.0781 30.7746C89.0892 31.9597 87.8498 32.9107 86.4492 33.5592C85.0485 34.2076 83.5215 34.5373 81.9781 34.5246C76.0531 34.5246 71.3031 30.5746 71.3031 24.4371C71.3031 18.2996 76.0531 14.3621 81.9781 14.3621C87.5156 14.3621 90.9906 18.3121 90.9906 24.4371V26.2996H77.2406C77.4039 27.3592 77.9464 28.3235 78.7672 29.0132C79.5879 29.7029 80.6312 30.0712 81.7031 30.0496C82.5474 30.0484 83.3777 29.8334 84.1165 29.4247C84.8553 29.0159 85.4785 28.4268 85.9281 27.7121L90.0781 30.7746ZM103.353 19.5996C102.386 19.5697 101.431 19.8294 100.612 20.3452C99.7929 20.861 99.1464 21.6096 98.7552 22.495C98.3641 23.3805 98.2461 24.3625 98.4165 25.3154C98.5868 26.2683 99.0377 27.1487 99.7114 27.8438C100.385 28.5389 101.251 29.0172 102.198 29.2173C103.145 29.4174 104.13 29.3302 105.028 28.967C105.925 28.6038 106.693 27.9811 107.235 27.1785C107.776 26.3759 108.065 25.4301 108.066 24.4621C108.119 23.8198 108.033 23.1735 107.815 22.5671C107.596 21.9607 107.25 21.4083 106.8 20.9473C106.349 20.4862 105.805 20.1273 105.204 19.8948C104.603 19.6623 103.959 19.5616 103.316 19.5996M113.566 34.0746H108.066V31.5746C107.378 32.491 106.491 33.2379 105.47 33.7579C104.449 34.278 103.323 34.5573 102.178 34.5746C96.4781 34.5746 92.7281 30.4621 92.7281 24.6496C92.7281 19.3121 96.0531 14.4121 101.478 14.4121C102.619 14.3119 103.767 14.4866 104.826 14.9216C105.885 15.3566 106.825 16.0392 107.566 16.9121H107.641V5.91211H113.566V34.0746Z" fill="#83858D"/>
<path id="Vector_3" d="M156.315 -1.48229e-05H122.265C121.878 -0.00499756 121.494 0.0670734 121.136 0.211992C120.777 0.35691 120.451 0.571773 120.177 0.844049C119.902 1.11632 119.684 1.44056 119.536 1.79784C119.388 2.15512 119.313 2.53828 119.315 2.92499V37.1125C119.318 37.496 119.397 37.8752 119.547 38.2281C119.697 38.581 119.916 38.9008 120.19 39.1691C120.464 39.4374 120.788 39.6489 121.145 39.7915C121.501 39.9341 121.881 40.0049 122.265 40H156.315C156.702 40.0099 157.087 39.9429 157.449 39.8027C157.81 39.6625 158.139 39.452 158.418 39.1834C158.698 38.9147 158.921 38.5934 159.074 38.2379C159.228 37.8824 159.31 37.4998 159.315 37.1125V2.92499C159.315 2.53448 159.237 2.14789 159.085 1.78804C158.934 1.42818 158.711 1.10234 158.432 0.829725C158.152 0.55711 157.821 0.343244 157.457 0.200738C157.094 0.058233 156.705 -0.0100279 156.315 -1.48229e-05ZM131.165 34.0875H125.24V15H131.165V34.0875ZM128.202 12.4125C127.522 12.4125 126.858 12.2109 126.293 11.8332C125.727 11.4554 125.287 10.9186 125.027 10.2905C124.766 9.66234 124.698 8.97117 124.831 8.30436C124.964 7.63755 125.291 7.02505 125.772 6.5443C126.252 6.06356 126.865 5.73617 127.532 5.60354C128.199 5.4709 128.89 5.53897 129.518 5.79915C130.146 6.05933 130.683 6.49992 131.061 7.06522C131.438 7.63051 131.64 8.29511 131.64 8.97499C131.64 9.88667 131.278 10.761 130.633 11.4057C129.988 12.0503 129.114 12.4125 128.202 12.4125ZM153.365 34.0875H147.44V24.8125C147.44 22.6 147.44 19.8125 144.365 19.8125C141.29 19.8125 140.802 22.225 140.802 24.7125V34.15H134.877V15H140.565V17.625H140.64C141.211 16.6542 142.035 15.8559 143.023 15.3146C144.011 14.7733 145.127 14.5091 146.252 14.55C152.252 14.55 153.365 18.5 153.365 23.6375V34.0875Z" fill="#83858D"/>
</g>
<defs>
<clipPath id="clip0_2001_19">
<rect width="160" height="40" fill="white" transform="translate(0.564819)"/>
</clipPath>
</defs>
</svg>
