<svg width="42" height="50" viewBox="0 0 42 50" fill="none" xmlns="http://www.w3.org/2000/svg">
<g id="Group 1261156266">
<g id="Group 1261156265">
<path id="Vector" d="M23.4311 41.0326C22.9845 41.1378 22.534 41.2274 22.0796 41.2988L17.3124 42.0479C16.6295 42.1556 15.9895 41.6895 15.883 41.0066C15.7753 40.3238 16.2413 39.6837 16.9242 39.576L21.7382 38.8191C22.0965 38.762 22.4587 38.6919 22.8118 38.6075L25.1396 38.057C25.1643 38.0505 25.1721 38.031 25.1721 38.0297C25.0059 36.5562 25.1539 35.0658 25.6109 33.6001C25.9367 32.5511 26.4573 31.4995 27.1558 30.4726C27.2337 30.357 27.3103 30.2389 27.383 30.1207C30.2496 25.4782 28.8046 19.3686 24.162 16.502C21.9121 15.1129 19.2572 14.6831 16.684 15.292C14.1122 15.9009 11.9311 17.4744 10.542 19.723C7.87535 24.0436 8.94122 29.6313 12.8412 32.6978C13.3449 33.0951 13.4812 33.8 13.1437 34.3466C12.7503 34.9853 11.8896 35.1333 11.3002 34.6698C6.40832 30.8296 5.06981 23.8242 8.41283 18.4091C10.1525 15.5906 12.8853 13.6199 16.1089 12.8565C19.3312 12.0944 22.6586 12.6332 25.4759 14.3729C31.2934 17.9638 33.1031 25.6184 29.5121 31.4372C29.4187 31.5865 29.3239 31.7332 29.2252 31.8786C28.6657 32.7017 28.2528 33.5326 27.9997 34.3453C27.6465 35.4774 27.531 36.6224 27.6582 37.7493C27.801 39.0177 26.9663 40.1965 25.7147 40.4925L23.4311 41.0326Z" fill="#FF510E"/>
<path id="Vector_2" d="M25.472 44.2575C23.7661 44.6613 20.7905 45.2754 17.5656 45.5415C16.8607 45.5986 16.2466 45.0625 16.2115 44.3549C16.1778 43.6785 16.6906 43.1021 17.3657 43.0463C20.5542 42.7814 23.5428 42.1453 25.1189 41.7662C25.7719 41.6091 26.4301 41.9973 26.6119 42.6438L26.6132 42.6451C26.8053 43.328 26.3938 44.0355 25.7057 44.2017C25.6304 44.2199 25.5525 44.2381 25.472 44.2575Z" fill="#FF510E"/>
<g id="Clip path group">
<mask id="mask0_1_935" style="mask-type:luminance" maskUnits="userSpaceOnUse" x="16" y="45" width="11" height="5">
<g id="0cdf5d86e5">
<path id="Vector_3" d="M16.9543 45.5675H26.9249V49.1299H16.9543V45.5675Z" fill="white"/>
</g>
</mask>
<g mask="url(#mask0_1_935)">
<g id="Group">
<path id="Vector_4" d="M17.0364 47.8356C17.0442 47.1618 17.583 46.6165 18.2555 46.5983C21.3233 46.5166 23.7237 46.0219 25.0298 45.6857C25.6568 45.5234 26.3008 45.8661 26.5189 46.475L26.5202 46.4776C26.7682 47.1696 26.3709 47.9252 25.6594 48.1095C25.492 48.1537 25.3102 48.1991 25.1142 48.2458C23.6043 48.6029 21.248 49.0235 18.3217 49.1001C17.6128 49.1183 17.0286 48.5444 17.0364 47.8356Z" fill="#FF510E"/>
</g>
</g>
</g>
<path id="Vector_5" d="M7.83138 45.2637C8.06896 44.9872 8.47791 44.5328 9.05434 43.9862C9.14392 44.7587 9.27893 45.7648 9.46199 46.7113C8.92581 46.4308 8.40001 46.1218 7.89629 45.7765C7.72622 45.661 7.69766 45.4208 7.83138 45.2637Z" fill="#FF510E"/>
<g id="Clip path group_2">
<mask id="mask1_1_935" style="mask-type:luminance" maskUnits="userSpaceOnUse" x="9" y="39" width="9" height="11">
<g id="0eb027eef2">
<path id="Vector_6" d="M9.64233 39.5851H17.9512V49.1299H9.64233V39.5851Z" fill="white"/>
</g>
</mask>
<g mask="url(#mask1_1_935)">
<g id="Group_2">
<path id="Vector_7" d="M15.6539 39.7357C15.3761 40.1135 15.2423 40.5964 15.3215 41.0949C15.3968 41.5753 15.6552 41.9972 16.0486 42.2828C16.2732 42.4477 16.5263 42.5529 16.7925 42.6022C16.081 42.8813 15.6033 43.5824 15.6435 44.3834C15.6682 44.8794 15.8876 45.3338 16.2615 45.6622C16.6367 45.9894 17.117 46.1478 17.613 46.1075C17.6363 46.1062 17.6584 46.1036 17.6818 46.101L17.687 46.1387C16.9807 46.3827 16.4757 47.041 16.4679 47.829C16.4627 48.2873 16.6276 48.7183 16.9301 49.0572C15.4825 48.8313 12.9639 48.3146 10.4985 47.2136C10.1882 45.866 9.98309 44.1484 9.88962 43.2384C11.2437 42.0868 13.1794 40.7327 15.6539 39.7357Z" fill="#FF510E"/>
</g>
</g>
</g>
<path id="Vector_8" d="M17.8189 17.9353C18.5108 17.7718 19.2015 17.7159 19.8766 17.7575C19.4716 17.7808 19.0639 17.838 18.6562 17.9353C14.8627 18.8324 12.5142 22.635 13.4113 26.4298C14.1461 29.5314 16.8231 31.6657 19.848 31.8501C16.4908 32.0474 13.3749 29.8144 12.5739 26.4298C11.6768 22.635 14.0254 18.8324 17.8189 17.9353ZM10.9641 26.7998C12.0663 31.4606 16.7374 34.3453 21.3995 33.2431C26.0589 32.1409 28.9437 27.4685 27.8414 22.8077C26.7392 18.147 22.0668 15.2622 17.406 16.3644C12.7453 17.468 9.86054 22.1391 10.9641 26.7998Z" fill="#FF510E"/>
<path id="Vector_9" d="M1.09714 13.5135C2.33048 13.3966 5.77347 18.0119 5.77347 18.0119C6.76793 19.2726 1.349 15.8672 0.510323 15.444C-0.327054 15.0208 -0.13621 13.629 1.09714 13.5135Z" fill="#FF510E"/>
<path id="Vector_10" d="M5.94016 4.72814C7.49807 5.15007 9.59217 12.3476 9.59217 12.3476C10.2309 14.3392 5.17289 7.71413 4.3446 6.81574C3.51501 5.91734 4.38225 4.3075 5.94016 4.72814Z" fill="#FF510E"/>
<path id="Vector_11" d="M14.4422 1.81353C14.0553 0.485413 15.7457 -0.708986 17.1127 0.50229C18.4785 1.71357 16.9738 10.064 16.9738 10.064C16.6168 12.4047 14.8304 3.14165 14.4422 1.81353Z" fill="#FF510E"/>
<path id="Vector_12" d="M25.523 10.9156C24.2312 12.8994 26.4318 3.72587 26.6291 2.35621C26.8252 0.986543 28.8569 0.597065 29.6008 2.26533C30.3447 3.93359 25.523 10.9156 25.523 10.9156Z" fill="#FF510E"/>
<path id="Vector_13" d="M30.7625 15.8867C28.4114 16.1645 36.8669 11.9802 38.0444 11.2532C39.222 10.5275 40.8227 11.8387 40.0178 13.4784C39.2129 15.1181 30.7625 15.8867 30.7625 15.8867Z" fill="#FF510E"/>
<path id="Vector_14" d="M40.5926 21.2186C41.7688 21.0758 42.5452 22.67 41.3326 23.658C40.1188 24.6447 33.2665 22.2182 33.2665 22.2182C31.3373 21.5925 39.4164 21.3627 40.5926 21.2186Z" fill="#FF510E"/>
<path id="Vector_15" d="M38.8415 29.7456C39.8411 30.0208 39.9385 31.5683 38.6286 31.9643C37.3186 32.359 32.5839 28.1176 32.5839 28.1176C31.2324 26.9686 37.8418 29.4717 38.8415 29.7456Z" fill="#FF510E"/>
<path id="Vector_16" d="M34.0525 35.8539C34.6587 36.185 34.4861 37.2041 33.576 37.2599C32.6672 37.317 30.2434 33.8442 30.2434 33.8442C29.5423 32.8939 33.4462 35.5241 34.0525 35.8539Z" fill="#FF510E"/>
</g>
</g>
</svg>
