<svg width="44" height="44" viewBox="0 0 44 44" fill="none" xmlns="http://www.w3.org/2000/svg">
<g id="Group">
<path id="Vector" d="M22.0968 43.3299H22.0016C10.0854 43.3299 0.390625 33.6323 0.390625 21.7126V21.6173C0.390625 9.69763 10.0854 0 22.0016 0H22.0968C34.013 0 43.7078 9.69763 43.7078 21.6173V21.7126C43.7078 33.6323 34.013 43.3299 22.0968 43.3299ZM22.0016 1.46667C10.8933 1.46667 1.85687 10.5058 1.85687 21.6173V21.7126C1.85687 32.8241 10.8933 41.8632 22.0016 41.8632H22.0968C33.2051 41.8632 42.2415 32.8241 42.2415 21.7126V21.6173C42.2415 10.5058 33.2051 1.46667 22.0968 1.46667H22.0016Z" fill="#E1E1E1"/>
<g id="layer1">
<path id="path1009" d="M9.61078 10.2114L19.2616 23.1181L9.55066 33.6122H11.7368L20.2396 24.425L27.1089 33.6122H34.5471L24.3538 19.9795L33.3932 10.2114H31.207L23.3773 18.6727L17.0505 10.2114H9.61223H9.61078ZM12.8248 11.8219H16.2411L31.3302 32.0018H27.9139L12.8248 11.8219Z" fill="#E1E1E1"/>
</g>
</g>
</svg>
